<svg width="25" height="25" viewBox="0 0 25 25" fill="none" xmlns="http://www.w3.org/2000/svg">
<path d="M4.16634 0.986816C3.28229 0.986816 2.43444 1.33338 1.80932 1.95028C1.1842 2.56718 0.833008 3.40387 0.833008 4.27629V20.7237C0.833008 21.5961 1.1842 22.4328 1.80932 23.0497C2.43444 23.6666 3.28229 24.0131 4.16634 24.0131H20.833C21.7171 24.0131 22.5649 23.6666 23.19 23.0497C23.8152 22.4328 24.1663 21.5961 24.1663 20.7237V4.27629C24.1663 3.40387 23.8152 2.56718 23.19 1.95028C22.5649 1.33338 21.7171 0.986816 20.833 0.986816H4.16634ZM13.333 6.7434V11.6776H18.333C18.554 11.6776 18.766 11.7642 18.9223 11.9185C19.0785 12.0727 19.1663 12.2819 19.1663 12.5C19.1663 12.7181 19.0785 12.9273 18.9223 13.0815C18.766 13.2357 18.554 13.3223 18.333 13.3223H13.333V18.2566C13.333 18.4747 13.2452 18.6838 13.0889 18.8381C12.9327 18.9923 12.7207 19.0789 12.4997 19.0789C12.2787 19.0789 12.0667 18.9923 11.9104 18.8381C11.7541 18.6838 11.6663 18.4747 11.6663 18.2566V13.3223H6.66634C6.44533 13.3223 6.23337 13.2357 6.07709 13.0815C5.92081 12.9273 5.83301 12.7181 5.83301 12.5C5.83301 12.2819 5.92081 12.0727 6.07709 11.9185C6.23337 11.7642 6.44533 11.6776 6.66634 11.6776H11.6663V6.7434C11.6663 6.52529 11.7541 6.31612 11.9104 6.16189C12.0667 6.00767 12.2787 5.92103 12.4997 5.92103C12.7207 5.92103 12.9327 6.00767 13.0889 6.16189C13.2452 6.31612 13.333 6.52529 13.333 6.7434V6.7434Z" fill="#00FF85"/>
</svg>
