<svg width="24" height="24" viewBox="0 0 24 24" fill="none" xmlns="http://www.w3.org/2000/svg">
<path d="M9.172 16.242L12 13.414L14.828 16.242L16.242 14.828L13.414 12L16.242 9.172L14.828 7.758L12 10.586L9.172 7.758L7.758 9.172L10.586 12L7.758 14.828L9.172 16.242Z" fill="#2A2D34"/>
<path d="M12 22C17.514 22 22 17.514 22 12C22 6.486 17.514 2 12 2C6.486 2 2 6.486 2 12C2 17.514 6.486 22 12 22ZM12 4C16.411 4 20 7.589 20 12C20 16.411 16.411 20 12 20C7.589 20 4 16.411 4 12C4 7.589 7.589 4 12 4Z" fill="#2A2D34"/>
</svg>
