<svg width="25" height="25" viewBox="0 0 25 25" fill="none" xmlns="http://www.w3.org/2000/svg">
<path d="M21.2411 8.32241C20.4677 8.32484 19.7139 8.59379 19.0831 9.0924C18.4523 9.59101 17.9753 10.2949 17.7175 11.1075H1.24947C0.918093 11.1075 0.600284 11.2542 0.365962 11.5153C0.131641 11.7765 0 12.1307 0 12.5C0 12.8693 0.131641 13.2235 0.365962 13.4847C0.600284 13.7458 0.918093 13.8925 1.24947 13.8925H17.7175C17.9468 14.6151 18.3499 15.2534 18.8829 15.7377C19.4158 16.222 20.058 16.5336 20.7392 16.6384C21.4204 16.7431 22.1143 16.637 22.7451 16.3317C23.3758 16.0263 23.919 15.5335 24.3152 14.9071C24.7114 14.2807 24.9454 13.545 24.9915 12.7803C25.0377 12.0157 24.8942 11.2516 24.5768 10.5717C24.2594 9.89187 23.7803 9.32242 23.192 8.92569C22.6036 8.52897 21.9287 8.32026 21.2411 8.32241V8.32241ZM1.24947 5.53736H2.72385C2.9865 6.34384 3.46558 7.04065 4.09598 7.53307C4.72639 8.02549 5.47754 8.28966 6.24737 8.28966C7.01719 8.28966 7.76835 8.02549 8.39876 7.53307C9.02916 7.04065 9.50824 6.34384 9.77088 5.53736H23.74C24.0714 5.53736 24.3892 5.39064 24.6235 5.12949C24.8578 4.86835 24.9895 4.51415 24.9895 4.14483C24.9895 3.77551 24.8578 3.42131 24.6235 3.16016C24.3892 2.89901 24.0714 2.7523 23.74 2.7523H9.77088C9.50824 1.94581 9.02916 1.24901 8.39876 0.756586C7.76835 0.264162 7.01719 0 6.24737 0C5.47754 0 4.72639 0.264162 4.09598 0.756586C3.46558 1.24901 2.9865 1.94581 2.72385 2.7523H1.24947C0.918093 2.7523 0.600284 2.89901 0.365962 3.16016C0.131641 3.42131 0 3.77551 0 4.14483C0 4.51415 0.131641 4.86835 0.365962 5.12949C0.600284 5.39064 0.918093 5.53736 1.24947 5.53736V5.53736ZM23.74 19.4626H14.7688C14.5061 18.6562 14.0271 17.9594 13.3967 17.4669C12.7662 16.9745 12.0151 16.7103 11.2453 16.7103C10.4754 16.7103 9.72428 16.9745 9.09388 17.4669C8.46347 17.9594 7.98439 18.6562 7.72175 19.4626H1.24947C0.918093 19.4626 0.600284 19.6094 0.365962 19.8705C0.131641 20.1317 0 20.4858 0 20.8552C0 21.2245 0.131641 21.5787 0.365962 21.8398C0.600284 22.101 0.918093 22.2477 1.24947 22.2477H7.72175C7.98439 23.0542 8.46347 23.751 9.09388 24.2434C9.72428 24.7358 10.4754 25 11.2453 25C12.0151 25 12.7662 24.7358 13.3967 24.2434C14.0271 23.751 14.5061 23.0542 14.7688 22.2477H23.74C24.0714 22.2477 24.3892 22.101 24.6235 21.8398C24.8578 21.5787 24.9895 21.2245 24.9895 20.8552C24.9895 20.4858 24.8578 20.1317 24.6235 19.8705C24.3892 19.6094 24.0714 19.4626 23.74 19.4626Z" fill="#2C2C2C"/>
</svg>
