<svg width="47" height="65" viewBox="0 0 47 65" fill="none" xmlns="http://www.w3.org/2000/svg">
<path d="M41.3077 0L16.2448 0C13.2909 0 10.8741 2.41678 10.8741 5.37063V51.9161C10.8741 54.8699 13.2909 57.2867 16.2448 57.2867H41.3077C44.2616 57.2867 46.6783 54.8699 46.6783 51.9161V5.37063C46.6783 2.41678 44.2616 0 41.3077 0ZM21.6154 2.68531H35.9371V4.47552H21.6154V2.68531ZM28.7762 53.7063C27.8267 53.7063 26.916 53.3291 26.2445 52.6576C25.573 51.9862 25.1958 51.0755 25.1958 50.1259C25.1958 49.1763 25.573 48.2656 26.2445 47.5941C26.916 46.9227 27.8267 46.5455 28.7762 46.5455C29.7258 46.5455 30.6365 46.9227 31.308 47.5941C31.9794 48.2656 32.3567 49.1763 32.3567 50.1259C32.3567 51.0755 31.9794 51.9862 31.308 52.6576C30.6365 53.3291 29.7258 53.7063 28.7762 53.7063ZM43.0979 42.965H14.4546V7.16084H43.0979V42.965Z" fill="#38B3E8"/>
<rect y="7" width="35.8042" height="57.2867" rx="10" fill="white"/>
<path d="M30.4336 7L5.37063 7C2.41678 7 0 9.41678 0 12.3706L0 58.9161C0 61.8699 2.41678 64.2867 5.37063 64.2867H30.4336C33.3874 64.2867 35.8042 61.8699 35.8042 58.9161V12.3706C35.8042 9.41678 33.3874 7 30.4336 7ZM10.7413 9.68531H25.0629V11.4755H10.7413V9.68531ZM17.9021 60.7063C16.9525 60.7063 16.0418 60.3291 15.3704 59.6576C14.6989 58.9862 14.3217 58.0755 14.3217 57.1259C14.3217 56.1763 14.6989 55.2656 15.3704 54.5941C16.0418 53.9227 16.9525 53.5455 17.9021 53.5455C18.8517 53.5455 19.7624 53.9227 20.4338 54.5941C21.1053 55.2656 21.4825 56.1763 21.4825 57.1259C21.4825 58.0755 21.1053 58.9862 20.4338 59.6576C19.7624 60.3291 18.8517 60.7063 17.9021 60.7063ZM32.2238 49.965H3.58042L3.58042 14.1608H32.2238V49.965Z" fill="#38B3E8"/>
</svg>
