<svg width="64" height="64" viewBox="0 0 64 64" fill="none" xmlns="http://www.w3.org/2000/svg">
<path fill-rule="evenodd" clip-rule="evenodd" d="M29.0909 23.2727V35.4036C27.1491 36.0899 25.5125 37.4406 24.4703 39.2169C23.428 40.9932 23.0473 43.0808 23.3955 45.1106C23.7436 47.1405 24.7982 48.9819 26.3728 50.3094C27.9473 51.6369 29.9405 52.365 32 52.365C34.0595 52.365 36.0527 51.6369 37.6273 50.3094C39.2019 48.9819 40.2564 47.1405 40.6046 45.1106C40.9527 43.0808 40.572 40.9932 39.5298 39.2169C38.4876 37.4406 36.8509 36.0899 34.9091 35.4036V23.2727H29.0909ZM29.0909 43.6363C29.0909 42.8648 29.3974 42.1249 29.943 41.5793C30.4886 41.0337 31.2285 40.7273 32 40.7273C32.7716 40.7273 33.5115 41.0337 34.0571 41.5793C34.6026 42.1249 34.9091 42.8648 34.9091 43.6363C34.9091 44.4079 34.6026 45.1478 34.0571 45.6934C33.5115 46.2389 32.7716 46.5454 32 46.5454C31.2285 46.5454 30.4886 46.2389 29.943 45.6934C29.3974 45.1478 29.0909 44.4079 29.0909 43.6363Z" fill="#B737D8"/>
<path d="M32 11.6362C37.4008 11.6362 42.5803 13.7817 46.3993 17.6006C50.2182 21.4195 52.3636 26.5991 52.3636 31.9999V34.909H46.5454V31.9999C46.5454 28.1422 45.013 24.4425 42.2852 21.7147C39.5574 18.9869 35.8577 17.4544 32 17.4544C28.1423 17.4544 24.4426 18.9869 21.7148 21.7147C18.987 24.4425 17.4545 28.1422 17.4545 31.9999V34.909H11.6364V31.9999C11.6364 26.5991 13.7818 21.4195 17.6007 17.6006C21.4196 13.7817 26.5992 11.6362 32 11.6362Z" fill="#B737D8"/>
<path fill-rule="evenodd" clip-rule="evenodd" d="M32 64C49.6727 64 64 49.6727 64 32C64 14.3273 49.6727 0 32 0C14.3273 0 0 14.3273 0 32C0 49.6727 14.3273 64 32 64ZM32 58.1818C35.4382 58.1818 38.8428 57.5046 42.0193 56.1889C45.1959 54.8731 48.0821 52.9445 50.5133 50.5133C52.9445 48.0821 54.8731 45.1959 56.1889 42.0193C57.5046 38.8428 58.1818 35.4382 58.1818 32C58.1818 28.5618 57.5046 25.1572 56.1889 21.9807C54.8731 18.8041 52.9445 15.9179 50.5133 13.4867C48.0821 11.0555 45.1959 9.12691 42.0193 7.81115C38.8428 6.49539 35.4382 5.81818 32 5.81818C25.0562 5.81818 18.3967 8.57662 13.4867 13.4867C8.57662 18.3967 5.81818 25.0562 5.81818 32C5.81818 38.9439 8.57662 45.6033 13.4867 50.5133C18.3967 55.4234 25.0562 58.1818 32 58.1818Z" fill="#B737D8"/>
</svg>
