<svg width="64" height="64" viewBox="0 0 64 64" fill="none" xmlns="http://www.w3.org/2000/svg">
<path d="M57.6 0H19.2C15.6704 0 12.8 2.8704 12.8 6.4V44.8C12.8 48.3296 15.6704 51.2 19.2 51.2H57.6C61.1297 51.2 64 48.3296 64 44.8V6.4C64 2.8704 61.1297 0 57.6 0ZM19.2 44.8V6.4H57.6L57.6065 44.8H19.2Z" fill="#DDD627"/>
<path d="M6.4 19.2H0V57.6C0 61.1296 2.8704 64 6.4 64H44.8V57.6H6.4V19.2Z" fill="#DDD627"/>
<path d="M32 31.9999L28.8 28.7999L22.4 38.3999H54.4L41.6 19.2L32 31.9999Z" fill="#DDD627"/>
</svg>
