<svg width="40" height="40" viewBox="0 0 40 40" fill="none" xmlns="http://www.w3.org/2000/svg">
<path d="M20 0C25.434 0 26.112 0.0199999 28.244 0.12C30.374 0.22 31.824 0.554 33.1 1.05C34.42 1.558 35.532 2.246 36.644 3.356C37.661 4.35579 38.4479 5.56518 38.95 6.9C39.444 8.174 39.78 9.626 39.88 11.756C39.974 13.888 40 14.566 40 20C40 25.434 39.98 26.112 39.88 28.244C39.78 30.374 39.444 31.824 38.95 33.1C38.4494 34.4356 37.6622 35.6452 36.644 36.644C35.6439 37.6606 34.4346 38.4475 33.1 38.95C31.826 39.444 30.374 39.78 28.244 39.88C26.112 39.974 25.434 40 20 40C14.566 40 13.888 39.98 11.756 39.88C9.626 39.78 8.176 39.444 6.9 38.95C5.56465 38.4489 4.35505 37.6619 3.356 36.644C2.33881 35.6444 1.55186 34.4349 1.05 33.1C0.554 31.826 0.22 30.374 0.12 28.244C0.0259999 26.112 0 25.434 0 20C0 14.566 0.0199999 13.888 0.12 11.756C0.22 9.624 0.554 8.176 1.05 6.9C1.55047 5.56436 2.33761 4.35464 3.356 3.356C4.35534 2.33846 5.56486 1.55146 6.9 1.05C8.176 0.554 9.624 0.22 11.756 0.12C13.888 0.0259999 14.566 0 20 0ZM20 10C17.3478 10 14.8043 11.0536 12.9289 12.9289C11.0536 14.8043 10 17.3478 10 20C10 22.6522 11.0536 25.1957 12.9289 27.0711C14.8043 28.9464 17.3478 30 20 30C22.6522 30 25.1957 28.9464 27.0711 27.0711C28.9464 25.1957 30 22.6522 30 20C30 17.3478 28.9464 14.8043 27.0711 12.9289C25.1957 11.0536 22.6522 10 20 10V10ZM33 9.5C33 8.83696 32.7366 8.20107 32.2678 7.73223C31.7989 7.26339 31.163 7 30.5 7C29.837 7 29.2011 7.26339 28.7322 7.73223C28.2634 8.20107 28 8.83696 28 9.5C28 10.163 28.2634 10.7989 28.7322 11.2678C29.2011 11.7366 29.837 12 30.5 12C31.163 12 31.7989 11.7366 32.2678 11.2678C32.7366 10.7989 33 10.163 33 9.5ZM20 14C21.5913 14 23.1174 14.6321 24.2426 15.7574C25.3679 16.8826 26 18.4087 26 20C26 21.5913 25.3679 23.1174 24.2426 24.2426C23.1174 25.3679 21.5913 26 20 26C18.4087 26 16.8826 25.3679 15.7574 24.2426C14.6321 23.1174 14 21.5913 14 20C14 18.4087 14.6321 16.8826 15.7574 15.7574C16.8826 14.6321 18.4087 14 20 14V14Z" fill="#2C2C2C"/>
</svg>
