<svg width="40" height="40" viewBox="0 0 40 40" fill="none" xmlns="http://www.w3.org/2000/svg">
<rect width="40" height="40" rx="5" fill="#2C2C2C"/>
<path d="M20.0616 29.3996C20.1502 29.4311 20.2093 29.4942 20.2388 29.5888C20.2683 29.6834 20.2535 29.7781 20.1945 29.8727L16.5187 33.7999C15.9282 34.4307 15.2491 34.9354 14.4815 35.3139C13.7138 35.6925 12.9314 35.9133 12.1342 35.9763C11.3371 36.0394 10.5399 35.9763 9.74274 35.7871C8.94558 35.5978 8.22222 35.2035 7.57268 34.6042C6.77551 33.9418 6.15549 33.1374 5.71262 32.1911C5.26975 31.2448 5.03355 30.2985 5.00403 29.3522C4.9745 28.4059 5.10736 27.4439 5.40261 26.466C5.69786 25.4882 6.19978 24.6365 6.90837 23.911L12.6214 17.8074C13.5367 16.8295 14.5996 16.104 15.8101 15.6309C17.0206 15.1577 18.2606 15.0316 19.5302 15.2524C20.6521 15.4416 21.5379 15.7886 22.1874 16.2933C22.837 16.798 23.3536 17.3815 23.7375 18.044C23.7965 18.2017 23.7891 18.32 23.7153 18.3988C23.6415 18.4777 23.5603 18.5486 23.4717 18.6117C23.3832 18.6748 23.2798 18.7695 23.1617 18.8956L22.8517 19.2268C22.5565 19.5738 22.2022 19.7473 21.7888 19.7473C21.3755 19.7473 20.999 19.5659 20.6595 19.2032C20.32 18.8404 19.9435 18.5644 19.5302 18.3752C19.1168 18.1859 18.6592 18.107 18.1573 18.1386C17.6554 18.1701 17.2125 18.249 16.8287 18.3752C16.4449 18.5013 16.0463 18.7852 15.6329 19.2268L9.07844 26.2295C8.69462 26.6395 8.41413 27.1127 8.23698 27.6489C8.05983 28.1851 8.00078 28.7214 8.05983 29.2576C8.11888 29.7938 8.26651 30.3301 8.50271 30.8663C8.7389 31.4026 9.12272 31.8284 9.65417 32.1438C10.3923 32.6801 11.1895 32.8693 12.0457 32.7116C12.9019 32.5539 13.6252 32.1754 14.2157 31.576L17.0501 28.5952C17.1092 28.5006 17.1977 28.4848 17.3158 28.5479C18.2016 28.958 19.1168 29.2418 20.0616 29.3996ZM32.3734 5.45816C33.1706 6.12057 33.7906 6.90916 34.2335 7.82391C34.6764 8.73867 34.9273 9.68497 34.9864 10.6628C35.0454 11.6407 34.9126 12.6185 34.5878 13.5963C34.263 14.5742 33.7463 15.4259 33.0377 16.1514L27.3247 22.255C26.4094 23.2328 25.3466 23.9426 24.136 24.3842C22.9255 24.8258 21.6707 24.9519 20.3716 24.7627C19.2497 24.605 18.3787 24.258 17.7587 23.7218C17.1387 23.1855 16.622 22.602 16.2087 21.9711C16.1496 21.8449 16.1644 21.7345 16.2529 21.6399L17.0501 20.7882C17.3749 20.4728 17.7439 20.3151 18.1573 20.3151C18.5706 20.3151 18.9249 20.4728 19.2202 20.7882C19.5745 21.1667 19.9731 21.4506 20.4159 21.6399C20.8588 21.8292 21.3164 21.9238 21.7888 21.9238C22.2612 21.9238 22.7189 21.8292 23.1617 21.6399C23.6046 21.4506 23.9884 21.1667 24.3132 20.7882L30.8677 13.8329C31.2515 13.4229 31.532 12.9339 31.7091 12.3662C31.8863 11.7984 31.9453 11.2464 31.8863 10.7101C31.8272 10.1739 31.6648 9.65343 31.3991 9.14873C31.1334 8.64404 30.7496 8.2182 30.2477 7.87123C29.5391 7.36653 28.7567 7.17727 27.9004 7.30345C27.0442 7.42962 26.3061 7.82391 25.6861 8.48632L22.896 11.4672C22.8074 11.5618 22.7189 11.5776 22.6303 11.5145C21.8036 11.136 20.8883 10.8363 19.8845 10.6155C19.7664 10.6155 19.7073 10.5524 19.7073 10.4262C19.7073 10.3001 19.7221 10.2212 19.7516 10.1897L23.4274 6.26252C24.0179 5.63165 24.697 5.12696 25.4647 4.74844C26.2323 4.36992 26.9999 4.13334 27.7676 4.03871C28.5352 3.94408 29.3324 4.02294 30.1591 4.27529C30.9858 4.52763 31.7239 4.92193 32.3734 5.45816Z" fill="white"/>
</svg>
